<?xml version="1.0" encoding="UTF-8" standalone="no" ?>
<!DOCTYPE svg PUBLIC "-//W3C//DTD SVG 1.1//EN" "http://www.w3.org/Graphics/SVG/1.1/DTD/svg11.dtd">
<svg xmlns="http://www.w3.org/2000/svg" xmlns:xlink="http://www.w3.org/1999/xlink" version="1.1" width="30" height="30" viewBox="0 0 50 50" xml:space="preserve">
<desc>Created with Fabric.js 5.2.4</desc>
<defs>
</defs>
<g transform="matrix(0 0 0 0 0 0)" id="79964ec1-4622-4f6c-8c95-525c21ef0335"  >
</g>
<g transform="matrix(1 0 0 1 25 25)" id="78441611-5c1a-4cf0-abbb-63691941e112"  >
<rect style="stroke: none; stroke-width: 1; stroke-dasharray: none; stroke-linecap: butt; stroke-dashoffset: 0; stroke-linejoin: miter; stroke-miterlimit: 4; fill: rgb(255,255,255); fill-rule: nonzero; opacity: 1; visibility: hidden;" vector-effect="non-scaling-stroke"  x="-25" y="-25" rx="0" ry="0" width="50" height="50" />
</g>
<g transform="matrix(0.04 0 0 0.04 24.43 24.43)"  >
<path style="stroke: none; stroke-width: 1; stroke-dasharray: none; stroke-linecap: butt; stroke-dashoffset: 0; stroke-linejoin: miter; stroke-miterlimit: 4; fill: rgb(0,0,255); fill-rule: nonzero; opacity: 1;" vector-effect="non-scaling-stroke"  transform=" translate(-77.86, -568.79)" d="M 400 568.79 C 400 746.6999999999999 255.77 890.93 77.86000000000001 890.93 C -100.04999999999998 890.93 -244.27999999999997 746.6999999999999 -244.27999999999997 568.79 C -244.27999999999997 390.88 -100.04999999999998 246.64999999999998 77.86000000000001 246.64999999999998 C 255.77 246.64999999999998 400 390.88 400 568.79 z" stroke-linecap="round" />
</g>
<g transform="matrix(0.05 0 0 0.05 25 25)"  >
<path style="stroke: none; stroke-width: 1; stroke-dasharray: none; stroke-linecap: butt; stroke-dashoffset: 0; stroke-linejoin: miter; stroke-miterlimit: 4; fill: rgb(255,255,255); fill-rule: nonzero; opacity: 1;" vector-effect="non-scaling-stroke"  transform=" translate(-355.41, -393.9)" d="M 357.76 241.87 L 236.54 362.08 L 583.02 362.08 L 583.02 423.69899999999996 L 238.56 423.69899999999996 L 359.23 545.929 L 276.73 545.929 L 127.81000000000003 393.07899999999995 L 277.90000000000003 241.86899999999994 z" stroke-linecap="round" />
</g>
</svg>